<svg xmlns="http://www.w3.org/2000/svg" style="display: none;"><symbol id="facebook" viewBox="0 0 112.196 112.196"><title>facebook</title><circle style="fill:#3B5998;" cx="56.098" cy="56.098" r="56.098"/><path style="fill:#FFFFFF;" d="M70.201,58.294h-10.01v36.672H45.025V58.294h-7.213V45.406h7.213v-8.34 c0-5.964,2.833-15.303,15.301-15.303L71.56,21.81v12.51h-8.151c-1.337,0-3.217,0.668-3.217,3.513v7.585h11.334L70.201,58.294z"/></symbol><symbol id="twitter" viewBox="0 0 112.197 112.197"><title>twitter</title><circle style="fill:#55ACEE;" cx="56.099" cy="56.098" r="56.098"/><g> <path style="fill:#F1F2F2;" d="M90.461,40.316c-2.404,1.066-4.99,1.787-7.702,2.109c2.769-1.659,4.894-4.284,5.897-7.417 c-2.591,1.537-5.462,2.652-8.515,3.253c-2.446-2.605-5.931-4.233-9.79-4.233c-7.404,0-13.409,6.005-13.409,13.409 c0,1.051,0.119,2.074,0.349,3.056c-11.144-0.559-21.025-5.897-27.639-14.012c-1.154,1.98-1.816,4.285-1.816,6.742 c0,4.651,2.369,8.757,5.965,11.161c-2.197-0.069-4.266-0.672-6.073-1.679c-0.001,0.057-0.001,0.114-0.001,0.17 c0,6.497,4.624,11.916,10.757,13.147c-1.124,0.308-2.311,0.471-3.532,0.471c-0.866,0-1.705-0.083-2.523-0.239 c1.706,5.326,6.657,9.203,12.526,9.312c-4.59,3.597-10.371,5.74-16.655,5.74c-1.08,0-2.15-0.063-3.197-0.188 c5.931,3.806,12.981,6.025,20.553,6.025c24.664,0,38.152-20.432,38.152-38.153c0-0.581-0.013-1.16-0.039-1.734 C86.391,45.366,88.664,43.005,90.461,40.316L90.461,40.316z"/> </g></symbol><symbol id="instagram" viewBox="0 0 89.758 89.758"><title>instagram</title><path style="fill:#6A453B;" d="M58.255,23.88H31.503c-4.27,0-7.744,3.474-7.744,7.744v26.752c0,4.27,3.474,7.745,7.744,7.745 h26.752c4.27,0,7.745-3.474,7.745-7.745V31.624C66,27.354,62.526,23.88,58.255,23.88z M44.879,58.906 c-7.667,0-13.905-6.238-13.905-13.906c0-7.667,6.238-13.905,13.905-13.905c7.668,0,13.906,6.238,13.906,13.905 C58.785,52.667,52.546,58.906,44.879,58.906z M59.232,33.97c-1.815,0-3.291-1.476-3.291-3.29c0-1.814,1.476-3.29,3.291-3.29 c1.814,0,3.29,1.476,3.29,3.29C62.522,32.494,61.046,33.97,59.232,33.97z"/><path style="fill:#6A453B;" d="M44.879,36.971c-4.426,0-8.03,3.602-8.03,8.028c0,4.428,3.604,8.031,8.03,8.031 c4.428,0,8.029-3.603,8.029-8.031C52.908,40.574,49.306,36.971,44.879,36.971z"/><path style="fill:#6A453B;" d="M44.879,0C20.094,0,0,20.094,0,44.879c0,24.785,20.094,44.879,44.879,44.879 c24.785,0,44.879-20.094,44.879-44.879C89.758,20.094,69.664,0,44.879,0z M71.875,58.376c0,7.511-6.109,13.62-13.62,13.62H31.503 c-7.51,0-13.62-6.109-13.62-13.62V31.624c0-7.51,6.11-13.62,13.62-13.62h26.752c7.511,0,13.62,6.11,13.62,13.62V58.376z"/></symbol><symbol id="linkedin" viewBox="0 0 112.196 112.196"><title>linkedin</title><circle style="fill:#007AB9;" cx="56.098" cy="56.097" r="56.098"/><g> <path style="fill:#F1F2F2;" d="M89.616,60.611v23.128H76.207V62.161c0-5.418-1.936-9.118-6.791-9.118 c-3.705,0-5.906,2.491-6.878,4.903c-0.353,0.862-0.444,2.059-0.444,3.268v22.524H48.684c0,0,0.18-36.546,0-40.329h13.411v5.715 c-0.027,0.045-0.065,0.089-0.089,0.132h0.089v-0.132c1.782-2.742,4.96-6.662,12.085-6.662 C83.002,42.462,89.616,48.226,89.616,60.611L89.616,60.611z M34.656,23.969c-4.587,0-7.588,3.011-7.588,6.967 c0,3.872,2.914,6.97,7.412,6.97h0.087c4.677,0,7.585-3.098,7.585-6.97C42.063,26.98,39.244,23.969,34.656,23.969L34.656,23.969z M27.865,83.739H41.27V43.409H27.865V83.739z"/> </g></symbol><symbol id="facebook-1" viewBox="0 0 408.788 408.788"><title>facebook-1</title><path style="fill:#475993;" d="M353.701,0H55.087C24.665,0,0.002,24.662,0.002,55.085v298.616c0,30.423,24.662,55.085,55.085,55.085 h147.275l0.251-146.078h-37.951c-4.932,0-8.935-3.988-8.954-8.92l-0.182-47.087c-0.019-4.959,3.996-8.989,8.955-8.989h37.882 v-45.498c0-52.8,32.247-81.55,79.348-81.55h38.65c4.945,0,8.955,4.009,8.955,8.955v39.704c0,4.944-4.007,8.952-8.95,8.955 l-23.719,0.011c-25.615,0-30.575,12.172-30.575,30.035v39.389h56.285c5.363,0,9.524,4.683,8.892,10.009l-5.581,47.087 c-0.534,4.506-4.355,7.901-8.892,7.901h-50.453l-0.251,146.078h87.631c30.422,0,55.084-24.662,55.084-55.084V55.085 C408.786,24.662,384.124,0,353.701,0z"/></symbol><symbol id="instagram-1" viewBox="0 0 551.034 551.034"><title>instagram-1</title><linearGradient id="SVGID_1_" gradientUnits="userSpaceOnUse" x1="275.517" y1="4.57" x2="275.517" y2="549.72" gradientTransform="matrix(1 0 0 -1 0 554)"> <stop offset="0" style="stop-color:#E09B3D"/> <stop offset="0.3" style="stop-color:#C74C4D"/> <stop offset="0.6" style="stop-color:#C21975"/> <stop offset="1" style="stop-color:#7024C4"/> </linearGradient><path style="fill:url(#SVGID_1_);" d="M386.878,0H164.156C73.64,0,0,73.64,0,164.156v222.722 c0,90.516,73.64,164.156,164.156,164.156h222.722c90.516,0,164.156-73.64,164.156-164.156V164.156 C551.033,73.64,477.393,0,386.878,0z M495.6,386.878c0,60.045-48.677,108.722-108.722,108.722H164.156 c-60.045,0-108.722-48.677-108.722-108.722V164.156c0-60.046,48.677-108.722,108.722-108.722h222.722 c60.045,0,108.722,48.676,108.722,108.722L495.6,386.878L495.6,386.878z"/><linearGradient id="SVGID_2_" gradientUnits="userSpaceOnUse" x1="275.517" y1="4.57" x2="275.517" y2="549.72" gradientTransform="matrix(1 0 0 -1 0 554)"> <stop offset="0" style="stop-color:#E09B3D"/> <stop offset="0.3" style="stop-color:#C74C4D"/> <stop offset="0.6" style="stop-color:#C21975"/> <stop offset="1" style="stop-color:#7024C4"/> </linearGradient><path style="fill:url(#SVGID_2_);" d="M275.517,133C196.933,133,133,196.933,133,275.516s63.933,142.517,142.517,142.517 S418.034,354.1,418.034,275.516S354.101,133,275.517,133z M275.517,362.6c-48.095,0-87.083-38.988-87.083-87.083 s38.989-87.083,87.083-87.083c48.095,0,87.083,38.988,87.083,87.083C362.6,323.611,323.611,362.6,275.517,362.6z"/><linearGradient id="SVGID_3_" gradientUnits="userSpaceOnUse" x1="418.31" y1="4.57" x2="418.31" y2="549.72" gradientTransform="matrix(1 0 0 -1 0 554)"> <stop offset="0" style="stop-color:#E09B3D"/> <stop offset="0.3" style="stop-color:#C74C4D"/> <stop offset="0.6" style="stop-color:#C21975"/> <stop offset="1" style="stop-color:#7024C4"/> </linearGradient><circle style="fill:url(#SVGID_3_);" cx="418.31" cy="134.07" r="34.15"/></symbol><symbol id="youtube" viewBox="0 0 461.001 461.001"><title>youtube</title><path style="fill:#F61C0D;" d="M365.257,67.393H95.744C42.866,67.393,0,110.259,0,163.137v134.728 c0,52.878,42.866,95.744,95.744,95.744h269.513c52.878,0,95.744-42.866,95.744-95.744V163.137 C461.001,110.259,418.135,67.393,365.257,67.393z M300.506,237.056l-126.06,60.123c-3.359,1.602-7.239-0.847-7.239-4.568V168.607 c0-3.774,3.982-6.22,7.348-4.514l126.06,63.881C304.363,229.873,304.298,235.248,300.506,237.056z"/></symbol><symbol id="twitter-1" viewBox="0 0 410.155 410.155"><title>twitter-1</title><path style="fill:#76A9EA;" d="M403.632,74.18c-9.113,4.041-18.573,7.229-28.28,9.537c10.696-10.164,18.738-22.877,23.275-37.067 l0,0c1.295-4.051-3.105-7.554-6.763-5.385l0,0c-13.504,8.01-28.05,14.019-43.235,17.862c-0.881,0.223-1.79,0.336-2.702,0.336 c-2.766,0-5.455-1.027-7.57-2.891c-16.156-14.239-36.935-22.081-58.508-22.081c-9.335,0-18.76,1.455-28.014,4.325 c-28.672,8.893-50.795,32.544-57.736,61.724c-2.604,10.945-3.309,21.9-2.097,32.56c0.139,1.225-0.44,2.08-0.797,2.481 c-0.627,0.703-1.516,1.106-2.439,1.106c-0.103,0-0.209-0.005-0.314-0.015c-62.762-5.831-119.358-36.068-159.363-85.14l0,0 c-2.04-2.503-5.952-2.196-7.578,0.593l0,0C13.677,65.565,9.537,80.937,9.537,96.579c0,23.972,9.631,46.563,26.36,63.032 c-7.035-1.668-13.844-4.295-20.169-7.808l0,0c-3.06-1.7-6.825,0.485-6.868,3.985l0,0c-0.438,35.612,20.412,67.3,51.646,81.569 c-0.629,0.015-1.258,0.022-1.888,0.022c-4.951,0-9.964-0.478-14.898-1.421l0,0c-3.446-0.658-6.341,2.611-5.271,5.952l0,0 c10.138,31.651,37.39,54.981,70.002,60.278c-27.066,18.169-58.585,27.753-91.39,27.753l-10.227-0.006 c-3.151,0-5.816,2.054-6.619,5.106c-0.791,3.006,0.666,6.177,3.353,7.74c36.966,21.513,79.131,32.883,121.955,32.883 c37.485,0,72.549-7.439,104.219-22.109c29.033-13.449,54.689-32.674,76.255-57.141c20.09-22.792,35.8-49.103,46.692-78.201 c10.383-27.737,15.871-57.333,15.871-85.589v-1.346c-0.001-4.537,2.051-8.806,5.631-11.712c13.585-11.03,25.415-24.014,35.16-38.591 l0,0C411.924,77.126,407.866,72.302,403.632,74.18L403.632,74.18z"/></symbol><symbol id="linkedin-1" viewBox="0 0 382 382"><title>linkedin-1</title><path style="fill:#0077B7;" d="M347.445,0H34.555C15.471,0,0,15.471,0,34.555v312.889C0,366.529,15.471,382,34.555,382h312.889 C366.529,382,382,366.529,382,347.444V34.555C382,15.471,366.529,0,347.445,0z M118.207,329.844c0,5.554-4.502,10.056-10.056,10.056 H65.345c-5.554,0-10.056-4.502-10.056-10.056V150.403c0-5.554,4.502-10.056,10.056-10.056h42.806 c5.554,0,10.056,4.502,10.056,10.056V329.844z M86.748,123.432c-22.459,0-40.666-18.207-40.666-40.666S64.289,42.1,86.748,42.1 s40.666,18.207,40.666,40.666S109.208,123.432,86.748,123.432z M341.91,330.654c0,5.106-4.14,9.246-9.246,9.246H286.73 c-5.106,0-9.246-4.14-9.246-9.246v-84.168c0-12.556,3.683-55.021-32.813-55.021c-28.309,0-34.051,29.066-35.204,42.11v97.079 c0,5.106-4.139,9.246-9.246,9.246h-44.426c-5.106,0-9.246-4.14-9.246-9.246V149.593c0-5.106,4.14-9.246,9.246-9.246h44.426 c5.106,0,9.246,4.14,9.246,9.246v15.655c10.497-15.753,26.097-27.912,59.312-27.912c73.552,0,73.131,68.716,73.131,106.472 L341.91,330.654L341.91,330.654z"/></symbol></svg>